# xmcd
#
# Track frame offsets:
#	150
#	21853
#	38068
#	54335
#	71405
#	86888
#	102610
#	123585
#	140743
#	158630
#	174320
#	190295
#	212108
#	229078
#	245295
#	262048
#
# Disc length: 3732 seconds
#
# Revision: 16
# Processed by: cddbd v1.5.2PL0 Copyright (c) Steve Scherf et al.
# Submitted via: EasyCDDAExtractor 15.3.0.1
#
DISCID=e40e9210
DTITLE=Paulina Rubio - Border Girl
DYEAR=2002
DGENRE=Pop
TTITLE0=Don't Say Goodbye
TTITLE1=Casanova
TTITLE2=Border Girl
TTITLE3=The One You Love
TTITLE4=Not That Kind Of Girl
TTITLE5=Undeniable
TTITLE6=The Last Goodbye
TTITLE7=Stereo
TTITLE8=I'll Be Right Here (Sexual Lover)
TTITLE9=Fire (Sexy Dance)
TTITLE10=I Was Made For Lovin' You
TTITLE11=Si Tu Te Vas
TTITLE12=Baila Casanova
TTITLE13=Todo Mi Amor
TTITLE14=Libre
TTITLE15=Y Yo Sigo Aqui
EXTD=YEAR: 2002
EXTT0=
EXTT1=
EXTT2=
EXTT3=
EXTT4=
EXTT5=
EXTT6=
EXTT7=
EXTT8=
EXTT9=
EXTT10=
EXTT11=
EXTT12=
EXTT13=
EXTT14=
EXTT15=
PLAYORDER=
